<svg width="9" height="12" viewBox="0 0 9 12" fill="none" xmlns="http://www.w3.org/2000/svg">
<path fill-rule="evenodd" clip-rule="evenodd" d="M4.75904 0.00136898C5.85354 -0.0273675 6.9144 0.39729 7.70926 1.18235C8.50413 1.9674 8.96824 3.04888 9 4.18999C9 7.0561 5.20466 11.2651 5.04285 11.4413C5.00595 11.4809 4.96182 11.5123 4.91307 11.5338C4.86432 11.5552 4.81195 11.5663 4.75904 11.5663C4.70612 11.5663 4.65375 11.5552 4.605 11.5338C4.55625 11.5123 4.51212 11.4809 4.47522 11.4413C4.31341 11.2638 0.518072 7.0561 0.518072 4.18999C0.54983 3.04888 1.01394 1.9674 1.80881 1.18235C2.60368 0.39729 3.66453 -0.0273675 4.75904 0.00136898ZM4.75904 6.29688C5.15362 6.27429 5.53323 6.13166 5.85094 5.88662C6.16865 5.64158 6.41054 5.30487 6.54676 4.91808C6.68298 4.53129 6.70757 4.11136 6.61744 3.71018C6.52732 3.30899 6.32645 2.94411 6.03966 2.66063C5.75287 2.37714 5.39269 2.18747 5.00367 2.11503C4.61464 2.0426 4.21381 2.09057 3.85064 2.25303C3.48747 2.4155 3.17789 2.68533 2.96016 3.0292C2.74244 3.37307 2.62609 3.77591 2.62549 4.18795C2.64086 4.76238 2.87412 5.307 3.27409 5.70236C3.67405 6.09771 4.20808 6.31152 4.75904 6.29688Z" fill="#2ca8ff"/>
</svg>
