<svg width="15" height="12" viewBox="0 0 15 12" fill="none" xmlns="http://www.w3.org/2000/svg">
<path fill-rule="evenodd" clip-rule="evenodd" d="M12.7625 4.09739C12.589 4.22019 12.06 4.58391 11.1753 5.18853C10.2907 5.79315 9.61453 6.2592 9.14678 6.58668C9.09561 6.62236 8.98549 6.70035 8.81811 6.82067C8.65072 6.94099 8.51019 7.03807 8.39918 7.11192C8.28817 7.18576 8.15461 7.26874 7.99677 7.36085C7.85673 7.44495 7.70755 7.51422 7.55185 7.56745C7.42756 7.61098 7.2965 7.63427 7.16416 7.63633H7.14859C7.01654 7.63427 6.88574 7.61098 6.76175 7.56745C6.60592 7.51389 6.45651 7.44464 6.31598 7.36085C6.15929 7.26902 6.02516 7.18604 5.91357 7.11192C5.80256 7.03807 5.6638 6.94099 5.49555 6.82067C5.32729 6.70035 5.21799 6.62236 5.16682 6.58668L1.54243 4.09739C1.1702 3.84087 0.850121 3.52142 0.597965 3.15477C0.353767 2.81401 0.221504 2.41124 0.218105 1.99809C0.215514 1.83752 0.246822 1.6781 0.310159 1.52939C0.373494 1.38068 0.467544 1.24575 0.58669 1.13264C0.697242 1.01835 0.831428 0.927311 0.980737 0.865314C1.13004 0.803317 1.29121 0.771716 1.45397 0.77252H12.8553C13.0306 0.763456 13.2055 0.794923 13.3654 0.864251C13.5253 0.933578 13.6654 1.03872 13.7738 1.1708C13.9949 1.45865 14.108 1.8095 14.0946 2.16652C14.0711 2.54944 13.9221 2.91554 13.6688 3.21285C13.4203 3.55391 13.114 3.85288 12.7625 4.09739ZM0.993441 4.92134C2.68638 6.0548 3.97141 6.93573 4.84852 7.56414C5.1434 7.77877 5.3825 7.94473 5.56579 8.062C5.79665 8.20661 6.04144 8.32969 6.29687 8.42958C6.56452 8.54675 6.85434 8.61055 7.14859 8.6171H7.16416C7.45841 8.61055 7.74823 8.54675 8.01588 8.42958C8.27149 8.32949 8.51658 8.20642 8.74786 8.062C8.93115 7.94141 9.16993 7.77545 9.46423 7.56414C10.1615 7.05909 11.4442 6.17816 13.3124 4.92134C13.6009 4.73258 13.8631 4.50952 14.0929 4.25753V10.3405C14.0957 10.5009 14.0649 10.6601 14.0023 10.8089C13.9398 10.9577 13.8467 11.093 13.7287 11.2068C13.6172 11.3219 13.4817 11.4134 13.331 11.4753C13.1802 11.5372 13.0176 11.5681 12.8535 11.5661H1.45572C1.29172 11.568 1.12913 11.537 0.978408 11.4751C0.827687 11.4132 0.692205 11.3218 0.580655 11.2068C0.462586 11.093 0.369489 10.9577 0.30693 10.8089C0.24437 10.6601 0.213576 10.5009 0.216359 10.3405V4.25753C0.445894 4.50789 0.706271 4.73078 0.991747 4.92134H0.993441Z" fill="#2ca8ff"/>
</svg>
