<svg width="16" height="16" viewBox="0 0 16 16" fill="none" xmlns="http://www.w3.org/2000/svg">
<path d="M3.34591 12.3475L0.916042 11.4964L1.68981 10.7226L3.60012 11.0363L3.85972 11.0789L4.04188 10.8891L7.4155 7.37365L7.84455 6.92656L7.3169 6.60168L1.18855 2.82833L2.20217 1.8147L9.90828 4.36494L10.2077 4.46404L10.4261 4.23645L13.7038 0.820933C14.1086 0.399117 14.781 0.392193 15.1944 0.805583C15.6078 1.21901 15.6009 1.89137 15.179 2.29619L15.5252 2.65694L15.179 2.29619L11.7636 5.57384L11.536 5.79224L11.6351 6.09169L14.1853 13.7978L13.1717 14.8114L9.39833 8.68313L9.07344 8.15549L8.62636 8.58453L5.11092 11.9581L4.92111 12.1403L4.96373 12.3999L5.27735 14.3102L4.50359 15.084L3.65252 12.6541L3.57298 12.427L3.34591 12.3475Z" stroke="white"/>
</svg>
