<svg width="18" height="22" viewBox="0 0 18 22" fill="none" xmlns="http://www.w3.org/2000/svg">
<g clip-path="url(#clip0_5802:2562)">
<path d="M1.125 15.3998C1.125 15.8374 1.30279 16.2571 1.61926 16.5665C1.93572 16.876 2.36495 17.0498 2.8125 17.0498H5.625C5.77418 17.0498 5.91726 16.9919 6.02275 16.8887C6.12824 16.7856 6.1875 16.6457 6.1875 16.4998C6.1875 16.3539 6.12824 16.214 6.02275 16.1109C5.91726 16.0078 5.77418 15.9498 5.625 15.9498H2.8125C2.66332 15.9498 2.52024 15.8919 2.41475 15.7887C2.30926 15.6856 2.25 15.5457 2.25 15.3998V3.2998C2.25 3.15394 2.30926 3.01404 2.41475 2.9109C2.52024 2.80775 2.66332 2.7498 2.8125 2.7498H3.9375V3.2998C3.9375 3.44567 3.99676 3.58557 4.10225 3.68871C4.20774 3.79186 4.35082 3.8498 4.5 3.8498C4.64918 3.8498 4.79226 3.79186 4.89775 3.68871C5.00324 3.58557 5.0625 3.44567 5.0625 3.2998V2.7498H7.3125V3.2998C7.3125 3.44567 7.37176 3.58557 7.47725 3.68871C7.58274 3.79186 7.72582 3.8498 7.875 3.8498C8.02418 3.8498 8.16726 3.79186 8.27275 3.68871C8.37824 3.58557 8.4375 3.44567 8.4375 3.2998V2.7498H10.6875V3.2998C10.6875 3.44567 10.7468 3.58557 10.8523 3.68871C10.9577 3.79186 11.1008 3.8498 11.25 3.8498C11.3992 3.8498 11.5423 3.79186 11.6477 3.68871C11.7532 3.58557 11.8125 3.44567 11.8125 3.2998V2.7498H12.9375C13.0867 2.7498 13.2298 2.80775 13.3352 2.9109C13.4407 3.01404 13.5 3.15394 13.5 3.2998V6.5998C13.5 6.74567 13.5593 6.88557 13.6648 6.98871C13.7702 7.09186 13.9133 7.14981 14.0625 7.14981C14.2117 7.14981 14.3548 7.09186 14.4602 6.98871C14.5657 6.88557 14.625 6.74567 14.625 6.5998V3.2998C14.625 2.8622 14.4472 2.44251 14.1307 2.13308C13.8143 1.82364 13.3851 1.6498 12.9375 1.6498H11.8125V1.0998C11.8125 0.953936 11.7532 0.814041 11.6477 0.710896C11.5423 0.607751 11.3992 0.549805 11.25 0.549805C11.1008 0.549805 10.9577 0.607751 10.8523 0.710896C10.7468 0.814041 10.6875 0.953936 10.6875 1.0998V1.6498H8.4375V1.0998C8.4375 0.953936 8.37824 0.814041 8.27275 0.710896C8.16726 0.607751 8.02418 0.549805 7.875 0.549805C7.72582 0.549805 7.58274 0.607751 7.47725 0.710896C7.37176 0.814041 7.3125 0.953936 7.3125 1.0998V1.6498H5.0625V1.0998C5.0625 0.953936 5.00324 0.814041 4.89775 0.710896C4.79226 0.607751 4.64918 0.549805 4.5 0.549805C4.35082 0.549805 4.20774 0.607751 4.10225 0.710896C3.99676 0.814041 3.9375 0.953936 3.9375 1.0998V1.6498H2.8125C2.36495 1.6498 1.93572 1.82364 1.61926 2.13308C1.30279 2.44251 1.125 2.8622 1.125 3.2998V15.3998Z" fill="white"/>
<path d="M4.5 6.6H11.25C11.3992 6.6 11.5423 6.54205 11.6477 6.43891C11.7532 6.33576 11.8125 6.19587 11.8125 6.05C11.8125 5.90413 11.7532 5.76424 11.6477 5.66109C11.5423 5.55795 11.3992 5.5 11.25 5.5H4.5C4.35082 5.5 4.20774 5.55795 4.10225 5.66109C3.99676 5.76424 3.9375 5.90413 3.9375 6.05C3.9375 6.19587 3.99676 6.33576 4.10225 6.43891C4.20774 6.54205 4.35082 6.6 4.5 6.6Z" fill="white"/>
<path d="M4.5 8.80019H10.125C10.2742 8.80019 10.4173 8.74225 10.5227 8.6391C10.6282 8.53596 10.6875 8.39606 10.6875 8.2502C10.6875 8.10433 10.6282 7.96443 10.5227 7.86129C10.4173 7.75814 10.2742 7.7002 10.125 7.7002H4.5C4.35082 7.7002 4.20774 7.75814 4.10225 7.86129C3.99676 7.96443 3.9375 8.10433 3.9375 8.2502C3.9375 8.39606 3.99676 8.53596 4.10225 8.6391C4.20774 8.74225 4.35082 8.80019 4.5 8.80019Z" fill="white"/>
<path d="M9 10.4504C9 10.3045 8.94074 10.1646 8.83525 10.0615C8.72976 9.95834 8.58668 9.90039 8.4375 9.90039H4.5C4.35082 9.90039 4.20774 9.95834 4.10225 10.0615C3.99676 10.1646 3.9375 10.3045 3.9375 10.4504C3.9375 10.5963 3.99676 10.7362 4.10225 10.8393C4.20774 10.9424 4.35082 11.0004 4.5 11.0004H8.4375C8.58668 11.0004 8.72976 10.9424 8.83525 10.8393C8.94074 10.7362 9 10.5963 9 10.4504Z" fill="white"/>
<path d="M4.5 12.0996C4.35082 12.0996 4.20774 12.1576 4.10225 12.2607C3.99676 12.3638 3.9375 12.5037 3.9375 12.6496C3.9375 12.7955 3.99676 12.9354 4.10225 13.0385C4.20774 13.1417 4.35082 13.1996 4.5 13.1996H6.75C6.89918 13.1996 7.04226 13.1417 7.14775 13.0385C7.25324 12.9354 7.3125 12.7955 7.3125 12.6496C7.3125 12.5037 7.25324 12.3638 7.14775 12.2607C7.04226 12.1576 6.89918 12.0996 6.75 12.0996H4.5Z" fill="white"/>
<path d="M7.87513 17.0502C7.91866 17.0514 7.96216 17.0469 8.0045 17.037L10.0914 16.5552C10.193 16.5319 10.286 16.4812 10.3597 16.4089L16.4077 10.4926C16.7151 10.1814 16.8852 9.76458 16.8813 9.33195C16.8775 8.89933 16.7 8.48549 16.3871 8.17956C16.0743 7.87364 15.651 7.70011 15.2086 7.69635C14.7661 7.69259 14.3398 7.8589 14.0216 8.15946L7.97357 14.0731C7.89985 14.1451 7.84805 14.2357 7.82394 14.3349L7.33007 16.3737C7.31168 16.4542 7.31186 16.5377 7.33057 16.6181C7.34928 16.6985 7.38607 16.7738 7.43826 16.8386C7.49045 16.9033 7.55673 16.9559 7.63229 16.9925C7.70785 17.0291 7.79081 17.0489 7.87513 17.0502ZM8.87919 14.7402L14.8169 8.93716C14.9257 8.8521 15.0627 8.80923 15.2017 8.81676C15.3408 8.82429 15.4721 8.88169 15.5706 8.97797C15.6691 9.07425 15.7278 9.20266 15.7355 9.33862C15.7432 9.47458 15.6993 9.60854 15.6123 9.71486L9.67513 15.5185L8.63338 15.7594L8.87919 14.7402Z" fill="white"/>
</g>
<defs>
<clipPath id="clip0_5802:2562">
<rect width="18" height="22" fill="white"/>
</clipPath>
</defs>
</svg>
