<svg width="11" height="12" viewBox="0 0 11 12" fill="none" xmlns="http://www.w3.org/2000/svg">
<path fill-rule="evenodd" clip-rule="evenodd" d="M10.5528 9.30966L8.88571 7.6382C8.80618 7.55983 8.71019 7.49787 8.60384 7.45623C8.49749 7.4146 8.38311 7.39421 8.26794 7.39636C8.15277 7.39851 8.03935 7.42316 7.93484 7.46872C7.83033 7.51429 7.73702 7.57979 7.66086 7.66106L6.82089 8.50314L6.65478 8.41106C5.90609 8.02211 5.22464 7.52832 4.63383 6.94663C4.04363 6.34093 3.55069 5.65739 3.17063 4.91764L3.08015 4.75507L3.6433 4.19114L3.9208 3.91299C4.08667 3.74774 4.18091 3.53017 4.18503 3.30296C4.18915 3.07574 4.10285 2.85527 3.94307 2.68479L2.27529 1.01333C2.19576 0.934812 2.0997 0.872729 1.99326 0.831034C1.88681 0.789338 1.77229 0.768948 1.65701 0.771158C1.54172 0.773369 1.42819 0.798132 1.32364 0.843873C1.21909 0.889614 1.12583 0.955327 1.04976 1.03683L0.580479 1.50995L0.592637 1.52329C0.430318 1.73304 0.300278 1.9633 0.206395 2.20724C0.119477 2.43124 0.0616816 2.6643 0.0342305 2.90135C-0.186567 4.73093 0.647994 6.4024 2.91067 8.6708C6.03965 11.8061 8.56093 11.5698 8.67031 11.5577C9.1755 11.4968 9.65195 11.3023 10.0444 10.997L10.0552 11.0059L10.5319 10.5385C10.6974 10.3728 10.7912 10.1551 10.7951 9.92788C10.7989 9.70064 10.7125 9.48021 10.5528 9.30966Z" fill="#2ca8ff"/>
</svg>
