<svg width="20" height="16" viewBox="0 0 20 16" fill="none" xmlns="http://www.w3.org/2000/svg">
<path d="M16.6343 1H3.27228C2.66988 1.00082 2.09239 1.24048 1.66644 1.66644C1.24048 2.09239 1.00082 2.66988 1 3.27228V13.3308C1.00082 13.9329 1.24058 14.5101 1.66663 14.9356C2.09267 15.361 2.67017 15.6 3.27228 15.6H16.6343C17.2364 15.6 17.8139 15.361 18.2399 14.9356C18.666 14.5101 18.9057 13.9329 18.9065 13.3308V3.27228C18.9057 2.66988 18.6661 2.09239 18.2401 1.66644C17.8141 1.24048 17.2366 1.00082 16.6343 1ZM3.27228 1.61747H16.6343C17.0731 1.61747 17.494 1.79181 17.8044 2.10215C18.1147 2.41249 18.2891 2.83339 18.2891 3.27228V4.02559H1.61747V3.27228C1.61747 2.83339 1.79181 2.41249 2.10215 2.10215C2.41249 1.79181 2.83339 1.61747 3.27228 1.61747ZM16.6343 14.9825H3.27228C2.83393 14.9825 2.41349 14.8086 2.10324 14.4989C1.79299 14.1893 1.61828 13.7692 1.61747 13.3308V4.64305H18.2891V13.3308C18.2882 13.7692 18.1135 14.1893 17.8033 14.4989C17.493 14.8086 17.0726 14.9825 16.6343 14.9825Z" fill="white" stroke="white" stroke-width="0.5"/>
<path d="M3.46967 3.24606C3.54933 3.24425 3.62674 3.21931 3.69247 3.17427C3.7582 3.12923 3.8094 3.06603 3.83984 2.9924C3.87028 2.91876 3.87863 2.83786 3.86389 2.75955C3.84914 2.68125 3.81193 2.60893 3.75679 2.55141C3.67969 2.47708 3.57677 2.43555 3.46967 2.43555C3.36257 2.43555 3.25965 2.47708 3.18255 2.55141C3.12741 2.60893 3.0902 2.68125 3.07545 2.75955C3.06071 2.83786 3.06906 2.91876 3.0995 2.9924C3.12993 3.06603 3.18114 3.12923 3.24687 3.17427C3.3126 3.21931 3.39001 3.24425 3.46967 3.24606Z" fill="white" stroke="white" stroke-width="0.5"/>
<path d="M5.09027 3.24606C5.16993 3.24425 5.24735 3.21931 5.31308 3.17427C5.37881 3.12923 5.43001 3.06603 5.46045 2.9924C5.49088 2.91876 5.49924 2.83786 5.48449 2.75955C5.46974 2.68125 5.43253 2.60893 5.3774 2.55141C5.30029 2.47708 5.19737 2.43555 5.09027 2.43555C4.98318 2.43555 4.88026 2.47708 4.80315 2.55141C4.74802 2.60893 4.7108 2.68125 4.69606 2.75955C4.68131 2.83786 4.68967 2.91876 4.7201 2.9924C4.75054 3.06603 4.80174 3.12923 4.86747 3.17427C4.9332 3.21931 5.01062 3.24425 5.09027 3.24606Z" fill="white" stroke="white" stroke-width="0.5"/>
<path d="M6.72065 3.24606C6.80031 3.24425 6.87772 3.21931 6.94345 3.17427C7.00918 3.12923 7.06038 3.06603 7.09082 2.9924C7.12125 2.91876 7.12961 2.83786 7.11486 2.75955C7.10012 2.68125 7.06291 2.60893 7.00777 2.55141C6.93066 2.47708 6.82774 2.43555 6.72065 2.43555C6.61355 2.43555 6.51063 2.47708 6.43352 2.55141C6.37839 2.60893 6.34118 2.68125 6.32643 2.75955C6.31168 2.83786 6.32004 2.91876 6.35047 2.9924C6.38091 3.06603 6.43212 3.12923 6.49784 3.17427C6.56357 3.21931 6.64099 3.24425 6.72065 3.24606Z" fill="white" stroke="white" stroke-width="0.5"/>
<path d="M15.066 8.47427C15.0409 8.39578 14.9897 8.32824 14.9209 8.28285L10.1077 5.50425C10.0608 5.47716 10.0076 5.46289 9.95337 5.46289C9.89918 5.46289 9.84594 5.47716 9.799 5.50425L4.98585 8.28285C4.93907 8.30999 4.90023 8.34895 4.87324 8.39581C4.84624 8.44268 4.83203 8.49582 4.83203 8.54991C4.83203 8.60399 4.84624 8.65713 4.87324 8.704C4.90023 8.75087 4.93907 8.78982 4.98585 8.81696L6.24857 9.54866V12.0432C6.24941 12.0909 6.26127 12.1377 6.28323 12.18C6.30519 12.2223 6.33665 12.259 6.37515 12.2871C6.39059 12.3303 9.77122 14.2321 9.78665 14.263C9.83359 14.2901 9.88683 14.3044 9.94102 14.3044C9.99521 14.3044 10.0485 14.2901 10.0954 14.263L13.4915 12.3118L13.5686 12.2439C13.6143 12.1865 13.6413 12.1164 13.6458 12.0432V9.54866L14.4578 9.09173V10.7188C14.4578 10.8006 14.4903 10.8792 14.5482 10.9371C14.6061 10.995 14.6846 11.0275 14.7665 11.0275C14.8484 11.0275 14.9269 10.995 14.9848 10.9371C15.0427 10.8792 15.0753 10.8006 15.0753 10.7188V8.55763C15.0703 8.53008 15.0672 8.50223 15.066 8.47427ZM9.95337 6.12481L13.6149 8.23654H9.95337C9.87149 8.23654 9.79296 8.26907 9.73506 8.32697C9.67716 8.38487 9.64464 8.46339 9.64464 8.54528C9.64464 8.62716 9.67716 8.70568 9.73506 8.76358C9.79296 8.82148 9.87149 8.85401 9.95337 8.85401H13.6149L9.95337 10.9688L5.75768 8.54528L9.95337 6.12481ZM13.0407 11.8703L9.95337 13.6394L6.86604 11.8703V9.9037L9.799 11.5925C9.84707 11.6165 9.89967 11.6302 9.95337 11.6326C10.007 11.6299 10.0595 11.6162 10.1077 11.5925L13.0407 9.9037V11.8703Z" fill="white" stroke="white" stroke-width="0.5"/>
</svg>
