<svg width="16" height="16" viewBox="0 0 16 16" fill="none" xmlns="http://www.w3.org/2000/svg">
<path fill-rule="evenodd" clip-rule="evenodd" d="M14.5296 15.7549L10.4469 11.8158C9.2333 12.8355 7.72138 13.3895 6.16366 13.3853C4.90695 13.3344 3.69233 12.8988 2.67094 12.1326C1.64956 11.3664 0.866505 10.3036 0.419229 9.0763C-0.0280474 7.84903 -0.119797 6.51152 0.155392 5.23022C0.430581 3.94893 1.06057 2.78036 1.96694 1.87003C2.87332 0.959694 4.01607 0.347789 5.253 0.110366C6.48993 -0.127058 7.76642 0.0204731 8.92363 0.534711C10.0808 1.04895 11.0677 1.90716 11.7613 3.00249C12.455 4.09782 12.8248 5.38195 12.8249 6.69507C12.8268 8.07476 12.4039 9.41858 11.6188 10.5283L15.7346 14.5018C15.8161 14.5794 15.8817 14.6735 15.9274 14.7784C15.973 14.8833 15.9976 14.9968 15.9998 15.112C16.002 15.2272 15.9817 15.3416 15.9402 15.4484C15.8986 15.5551 15.8367 15.6518 15.7581 15.7328C15.5951 15.8999 15.3768 15.9955 15.1483 15.9998C14.9198 16.0042 14.6984 15.917 14.5296 15.7562L14.5296 15.7549ZM1.24028 6.69139C1.20195 7.71657 1.4581 8.73028 1.97581 9.60229C2.49352 10.4743 3.24914 11.1648 4.14558 11.5849C5.04202 12.0051 6.03832 12.1359 7.00646 11.9603C7.9746 11.7848 8.87035 11.311 9.57861 10.5998C10.2869 9.88866 10.7753 8.97266 10.9811 7.96945C11.1869 6.96625 11.1007 5.9217 10.7336 4.97004C10.3664 4.01838 9.73514 3.20304 8.9208 2.62886C8.10647 2.05468 7.14629 1.74791 6.16366 1.74786C4.8832 1.7228 3.64556 2.22926 2.72246 3.15613C1.79937 4.083 1.26629 5.3545 1.24028 6.69139Z" fill="#C5C5C5"/>
</svg>
