<svg width="32" height="32" viewBox="0 0 32 32" fill="none" xmlns="http://www.w3.org/2000/svg">
<circle cx="16" cy="16" r="16" fill="#E24C4B"/>
<path d="M13.0098 11.1034L14.0443 17.9568C14.1736 18.7326 14.8201 19.3792 15.7253 19.3792C16.5012 19.3792 17.2771 18.7326 17.4064 17.9568L18.4409 11.1034C18.6994 9.42236 17.4064 8 15.7253 8C14.0442 7.99991 12.8804 9.42236 13.0098 11.1034Z" fill="white"/>
<path d="M15.7236 23.9057C16.5806 23.9057 17.2754 23.211 17.2754 22.354C17.2754 21.497 16.5806 20.8022 15.7236 20.8022C14.8666 20.8022 14.1719 21.497 14.1719 22.354C14.1719 23.211 14.8666 23.9057 15.7236 23.9057Z" fill="white"/>
</svg>
